<svg width="900" height="560" viewBox="0 0 900 560" xmlns="http://www.w3.org/2000/svg" font-family="ui-monospace, SFMono-Regular, Menlo, monospace">
  <rect width="900" height="560" fill="#11111b"/>

  <!-- tab bar -->
  <rect x="0" y="0" width="900" height="34" fill="#181825"/>
  <rect x="10" y="6" width="150" height="22" rx="5" fill="#313244"/>
  <circle cx="24" cy="17" r="4" fill="#a6e3a1"/>
  <text x="36" y="21" fill="#cdd6f4" font-size="12">1: plan · code</text>
  <rect x="168" y="6" width="120" height="22" rx="5" fill="#181825" stroke="#313244"/>
  <circle cx="182" cy="17" r="4" fill="#f38ba8"/>
  <text x="194" y="21" fill="#6c7086" font-size="12">2: review</text>
  <text x="828" y="21" fill="#45475a" font-size="12">herdr</text>

  <!-- sidebar: agent state rollup -->
  <rect x="0" y="34" width="210" height="526" fill="#181825"/>
  <text x="18" y="64" fill="#6c7086" font-size="11" letter-spacing="1">AGENTS</text>

  <g font-size="13">
    <circle cx="24" cy="92" r="5" fill="#a6e3a1"/>
    <text x="38" y="97" fill="#cdd6f4">planner</text>
    <text x="150" y="97" fill="#6c7086" font-size="11">idle</text>
    <text x="38" y="113" fill="#585b70" font-size="10">claude · opus · plan</text>

    <circle cx="24" cy="146" r="5" fill="#f9e2af"/>
    <text x="38" y="151" fill="#cdd6f4">coder</text>
    <text x="140" y="151" fill="#6c7086" font-size="11">working</text>
    <text x="38" y="167" fill="#585b70" font-size="10">claude · sonnet</text>

    <circle cx="24" cy="200" r="5" fill="#89b4fa"/>
    <text x="38" y="205" fill="#cdd6f4">rev-cc</text>
    <text x="146" y="205" fill="#6c7086" font-size="11">review</text>
    <text x="38" y="221" fill="#585b70" font-size="10">claude · opus</text>

    <circle cx="24" cy="254" r="5" fill="#cba6f7"/>
    <text x="38" y="259" fill="#cdd6f4">rev-cx</text>
    <text x="146" y="259" fill="#6c7086" font-size="11">review</text>
    <text x="38" y="275" fill="#585b70" font-size="10">codex</text>
  </g>

  <line x1="18" y1="300" x2="192" y2="300" stroke="#313244"/>
  <text x="18" y="326" fill="#6c7086" font-size="10">plan.md · git diff</text>
  <text x="18" y="342" fill="#585b70" font-size="10">= handoff between</text>
  <text x="18" y="356" fill="#585b70" font-size="10">panes</text>

  <!-- main area: active "plan · code" tab, planner (top) + coder (bottom) -->
  <!-- planner pane -->
  <rect x="224" y="48" width="662" height="240" rx="6" fill="#1e1e2e" stroke="#45475a"/>
  <rect x="224" y="48" width="662" height="26" rx="6" fill="#313244"/>
  <rect x="224" y="62" width="662" height="12" fill="#313244"/>
  <circle cx="240" cy="61" r="4" fill="#a6e3a1"/>
  <text x="252" y="65" fill="#cdd6f4" font-size="12">planner</text>
  <text x="360" y="65" fill="#6c7086" font-size="11">claude --permission-mode plan --model opus</text>
  <g font-size="12.5">
    <text x="240" y="106" fill="#a6adc8">$ claude --permission-mode plan --model opus</text>
    <text x="240" y="130" fill="#89b4fa">▸ Reading task, drafting implementation plan…</text>
    <text x="240" y="154" fill="#cdd6f4">  1. add filter param to product query</text>
    <text x="240" y="174" fill="#cdd6f4">  2. thread queryKey so cache stays fresh</text>
    <text x="240" y="194" fill="#cdd6f4">  3. tests for empty + filtered states</text>
    <text x="240" y="226" fill="#a6e3a1">✓ Plan saved to plan.md — awaiting approval</text>
    <text x="240" y="254" fill="#f9e2af">▮</text>
  </g>

  <!-- coder pane -->
  <rect x="224" y="304" width="662" height="240" rx="6" fill="#1e1e2e" stroke="#45475a"/>
  <rect x="224" y="304" width="662" height="26" rx="6" fill="#313244"/>
  <rect x="224" y="318" width="662" height="12" fill="#313244"/>
  <circle cx="240" cy="317" r="4" fill="#f9e2af"/>
  <text x="252" y="321" fill="#cdd6f4" font-size="12">coder</text>
  <text x="360" y="321" fill="#6c7086" font-size="11">claude --model sonnet</text>
  <g font-size="12.5">
    <text x="240" y="362" fill="#a6adc8">$ claude --model sonnet</text>
    <text x="240" y="386" fill="#89b4fa">▸ Reading plan.md, implementing…</text>
    <text x="240" y="410" fill="#a6e3a1">  M  src/api/products.ts</text>
    <text x="240" y="430" fill="#a6e3a1">  M  src/hooks/useProducts.ts</text>
    <text x="240" y="450" fill="#a6e3a1">  A  src/hooks/useProducts.test.ts</text>
    <text x="240" y="482" fill="#cdd6f4">  running tests… 12 passed</text>
    <text x="240" y="510" fill="#f9e2af">▮</text>
  </g>
</svg>
